<?xml version="1.0" encoding="UTF-8"?>
<svg xmlns="http://www.w3.org/2000/svg" viewBox="0 0 900 330" fill="currentColor">
  <path d="M505.93 24.13A.42.42 0 0 1 506.646985 23.833015L647.516985 164.703015A.42.42 0 0 1 647.516985 165.296985L506.646985 306.166985A.42.42 0 0 1 505.93 305.87L505.93 249.52A.42.42 0 0 1 506.053015 249.223015L590.27603 165 506.053015 80.776985A.42.42 0 0 1 505.93 80.48Z"/>
  <path d="M604.54 24.13A.42.42 0 0 1 605.256985 23.833015L746.126985 164.703015A.42.42 0 0 1 746.126985 165.296985L605.256985 306.166985A.42.42 0 0 1 604.54 305.87L604.54 249.52A.42.42 0 0 1 604.663015 249.223015L688.88603 165 604.663015 80.776985A.42.42 0 0 1 604.54 80.48Z"/>
  <path d="M703.15 24.13A.42.42 0 0 1 703.866995 23.833026L844.726995 164.703026A.42.42 0 0 1 844.726995 165.296974L703.866995 306.166974A.42.42 0 0 1 703.15 305.87L703.15 249.52A.42.42 0 0 1 703.273015 249.223015L787.49603 165 703.273015 80.776985A.42.42 0 0 1 703.15 80.48Z"/>
  <path d="M70.33,66.8l-11.01,30.3h-4.49l12.67-33.25h2.9l-.06,2.94ZM79.54,97.1l-11.03-30.3-.07-2.94h2.9l12.72,33.25h-4.52ZM78.97,84.79v3.61h-18.67v-3.61h18.67Z"/>
  <path d="M100.78,84.06h-8.88v-3.58h9.38s.49-.03.49-.03l.47-.04.45-.06.43-.07.41-.09.39-.1.37-.13.34-.14.33-.16h0l.31-.17.3-.18.27-.2.26-.21.24-.22.23-.23.2-.25.19-.26.17-.27.16-.29h0l.14-.3.13-.31.11-.31.1-.32.08-.33.07-.34.05-.34.03-.35.02-.36v-.38h0v-.34s-.03-.34-.03-.34l-.03-.34-.05-.33-.07-.32-.08-.32-.1-.31-.11-.31-.13-.31-.14-.31h0l-.16-.3-.17-.28-.19-.27-.2-.26-.23-.25-.24-.23-.26-.23-.27-.21-.3-.2-.31-.19h0l-.33-.18-.34-.16-.37-.14-.39-.13-.41-.1-.43-.09-.45-.06-.47-.05-.49-.03h-.5s-7.86,0-7.86,0v29.64h-4.41v-33.25h12.26l.74.02.72.04.7.06.67.09.65.12.63.14.6.17.58.19.56.23.53.24h0l.5.27.49.29.46.31.43.33.41.35.38.37.36.39.33.41.31.43.28.45h0l.26.47.23.47.2.49.17.5.15.52.13.53.09.54.07.56.04.57v.58h0v.63s-.05.61-.05.61l-.07.59-.09.57-.13.56-.15.54-.17.52-.2.49-.23.49-.26.46h0l-.28.44-.31.42-.33.4-.36.38-.38.35-.41.34-.43.31-.46.29-.49.27-.5.24h0l-.53.23-.56.2-.58.17-.6.15-.63.13-.65.1-.67.09-.7.05-.72.04h-.74Z"/>
  <path d="M130.33,66.8l-11,30.3h-4.5l12.67-33.25h2.9l-.07,2.94ZM139.55,97.1l-11.03-30.3-.06-2.94h2.9l12.72,33.25h-4.52ZM138.98,84.79v3.61h-18.68v-3.61h18.68Z"/>
  <path d="M168.6,86.53h4.38l-.08.63-.1.61-.13.59-.15.59-.17.57-.19.56-.22.54-.23.53-.26.52-.28.51h0l-.31.49-.33.47-.35.45-.38.42-.4.41-.42.38-.45.37-.47.34-.5.32-.52.31h0l-.55.27-.57.25-.6.21-.63.19-.65.16-.68.13-.71.1-.73.07-.76.04-.79.02h-.58s-.56-.04-.56-.04l-.56-.05-.55-.08-.53-.1-.53-.12-.52-.14-.5-.16-.5-.19-.48-.21h0l-.47-.23-.45-.24-.45-.27-.43-.28-.41-.31-.4-.32-.39-.34-.38-.35-.36-.38-.35-.4h0l-.33-.41-.32-.43-.31-.45-.29-.46-.27-.48-.26-.49-.23-.51-.23-.52-.21-.55-.2-.56h0l-.17-.58-.16-.59-.14-.6-.12-.62-.1-.63-.08-.64-.06-.66-.05-.67-.03-.68v-.69s0-3.31,0-3.31h0v-.69s.04-.68.04-.68l.05-.67.06-.66.08-.63.1-.63.12-.62.14-.59.16-.59.17-.57h0l.2-.56.21-.55.23-.53.24-.51.26-.5.27-.48.29-.46.31-.45.32-.44.34-.41h0l.36-.39.38-.38.38-.36.4-.34.41-.32.43-.31.45-.28.46-.27.47-.25.49-.23h0l.5-.21.51-.19.52-.16.54-.14.55-.12.56-.1.58-.08.59-.05.59-.03h.61s.74,0,.74,0l.72.04.69.07.67.1.65.13.63.16.6.18.58.21.56.24.53.27h0l.51.29.49.32.46.34.44.36.41.38.39.41.38.42.34.45.32.47.3.49h0l.28.51.26.52.23.53.22.56.19.57.17.59.15.6.13.62.1.63.08.65h-4.38l-.07-.46-.09-.45-.09-.43-.1-.42-.12-.41-.13-.39-.13-.38-.15-.36-.16-.36-.16-.34h0l-.18-.33-.2-.31-.21-.31-.23-.28-.23-.27-.26-.25-.27-.24-.28-.22-.3-.2-.31-.2h0l-.33-.17-.35-.16-.37-.13-.39-.12-.41-.1-.42-.09-.45-.06-.46-.05-.49-.02h-.51s-.44,0-.44,0l-.43.02-.41.04-.41.06-.39.08-.39.09-.37.11-.37.13-.35.14-.34.16h0l-.33.17-.32.19-.31.21-.3.21-.28.23-.27.25-.27.26-.26.27-.24.29-.23.31h0l-.22.31-.2.33-.2.34-.19.35-.17.37-.16.38-.16.39-.14.41-.13.41-.13.43h0l-.11.44-.09.45-.09.45-.07.47-.06.48-.05.49-.04.5-.03.5-.02.52v.52s0,3.36,0,3.36h0v.49s.02.48.02.48l.02.48.04.47.04.46.05.45.07.45.07.45.09.44.09.43h0l.12.43.12.41.13.41.14.39.15.38.16.37.17.36.19.35.2.34.2.33h0l.21.31.23.31.24.29.25.28.26.26.27.25.28.23.3.22.31.21.32.2h0l.33.17.34.16.35.13.37.12.38.1.39.09.4.06.41.05.42.02h.44s.56,0,.56,0l.52-.02.5-.05.49-.06.46-.08.43-.1.41-.12.39-.13.37-.15.34-.17h0l.33-.18.31-.2.29-.22.28-.23.26-.25.24-.27.23-.27.21-.3.19-.31.18-.32h0l.17-.34.16-.35.15-.37.13-.38.13-.39.12-.41.11-.42.09-.43.09-.45.08-.46Z"/>
  <path d="M200.68,78.15v3.58h-17.99v-3.58h17.99ZM183.37,63.86v33.25h-4.41v-33.25h4.41ZM204.51,63.86v33.25h-4.38v-33.25h4.38Z"/>
  <path d="M233.44,93.52v3.58h-17.6v-3.58h17.6ZM216.73,63.86v33.25h-4.41v-33.25h4.41ZM231.11,78.15v3.58h-15.28v-3.58h15.28ZM233.21,63.86v3.61h-17.37v-3.61h17.37Z"/>
  <path d="M116.88,213.56h0l-.27-.02-.23-.04-.23-.07-.2-.09-.18-.12-.17-.15-.14-.17-.13-.2-.11-.23-.09-.25-4.05-13.2h0l-.05-.1-.05-.09-.06-.08-.06-.07-.06-.06-.07-.05-.07-.04-.08-.02-.08-.02h-.08s-33.14,0-33.14,0h-.08s-.08.02-.08.02l-.08.02-.07.04-.07.05-.06.06-.06.07-.06.08-.05.09-.05.1-3.91,13.2h0l-.09.25-.11.23-.13.2-.15.17-.16.15-.19.12-.2.09-.22.07-.24.04-.26.02h-17.27s-.15-.02-.15-.02l-.14-.02-.13-.02-.13-.04-.12-.05-.11-.05-.1-.06-.09-.07-.08-.08h0l-.08-.11-.06-.12-.05-.13-.03-.13-.02-.15v-.31l.02-.17.03-.18.05-.18,29.11-91.07h0l.09-.25.11-.23.13-.2.15-.17.16-.15.19-.12.2-.09.22-.07.24-.04.26-.02h21.15l.26.02.24.04.22.07.2.09.19.12.16.15.15.17.13.2.11.23.09.25,29.1,91.07h0l.02.05.02.05.02.06.02.06.02.07v.06s.02.08.02.08v.15s0,.08,0,.08h0l-.02.23-.04.21-.08.18-.1.16-.13.13-.16.11-.2.09-.22.06-.25.03-.28.02h-17.11ZM81.45,182.98h0l-.02.16v.26s.04.1.04.1l.05.09.06.07.08.05.09.04.11.03h.13s23.71,0,23.71,0h.15s.13-.04.13-.04l.1-.04.09-.05.07-.07.04-.09.02-.1v-.13l-.02-.13-.04-.16-12.13-40.01h0l-.02-.1-.03-.09-.03-.08-.04-.06-.04-.05-.04-.03-.05-.02h-.05s-.05,0-.05,0l-.05.02h-.05s-.05.02-.05.02l-.05.02-.05.02-.04.04-.04.05-.04.05-.03.06-.03.07-.03.08-11.86,40.01Z"/>
  <path d="M199.06,213.56h0l-.26-.02-.25-.03-.23-.06-.21-.09-.2-.11-.18-.13-.16-.16-.15-.18-.13-.21-.12-.23-16.84-37.31h0l-.05-.1-.06-.09-.06-.08-.08-.07-.08-.06-.08-.05-.09-.04-.09-.02-.1-.02h-.1s-12.53,0-12.53,0h-.13s-.12.02-.12.02l-.1.04-.09.05-.07.05-.06.08-.05.09-.03.1-.02.12v.13s0,36.77,0,36.77h0v.13s-.02.13-.02.13l-.02.13-.04.13-.05.13-.06.12-.07.12-.08.12-.09.11-.1.11h0l-.08.08-.09.07-.09.06-.1.05-.1.05-.11.04-.12.02-.12.02h-.13s-.13.02-.13.02h-15.9s-.13-.02-.13-.02l-.13-.02-.13-.02-.12-.04-.13-.05-.12-.05-.11-.06-.12-.07-.1-.08h0l-.08-.11-.07-.11-.06-.12-.05-.12-.05-.12-.04-.13-.02-.13-.02-.13-.02-.13v-91.2h0v-.13l.02-.13.02-.13.02-.12.04-.11.05-.1.05-.1.06-.09.07-.09.08-.09h0l.1-.1.12-.09.11-.08.12-.07.13-.06.12-.05.13-.04.13-.02.13-.02h.13s38.54,0,38.54,0h0l1.7.04,1.66.1,1.62.17,1.57.25,1.53.31,1.49.38,1.44.45,1.4.53,1.36.59,1.31.67h0l1.28.73,1.23.79,1.17.85,1.1.91,1.04.97.98,1.03.92,1.09.86,1.14.79,1.21.74,1.27h0l.69,1.31.62,1.35.55,1.4.47,1.43.4,1.47.33,1.52.26,1.56.18,1.6.11,1.64.03,1.67h0l-.04,1.81-.14,1.75-.23,1.71-.32,1.65-.41,1.6-.5,1.55-.59,1.5-.69,1.45-.78,1.39-.87,1.35h0l-.95,1.26-1.03,1.18-1.1,1.1-1.17,1.03-1.24.95-1.31.88-1.39.81-1.46.73-1.53.65-1.6.58h0l-.13.05-.11.07-.09.07-.07.09-.05.09-.03.1-.02.1v.12s.04.13.04.13l.04.13,18.32,38.13h0l.05.1.05.1.04.09.03.09.03.09.02.08.02.07v.07s.02.06.02.06v.05h0l-.02.2-.05.19-.07.16-.11.14-.13.12-.16.1-.2.07-.22.05-.26.03-.28.02h-16.57ZM166.99,135.56h-.13s-.12.02-.12.02l-.1.04-.09.05-.07.06-.06.07-.05.09-.03.1-.02.12v.13s0,23.04,0,23.04h0v.13s.03.12.03.12l.03.1.05.09.06.07.07.06.09.05.1.03.12.02h.13s17.65,0,17.65,0h0l1.11-.04,1.06-.09,1.03-.17.98-.23.94-.31.9-.37.85-.44.81-.51.76-.57.73-.64h0l.69-.69.62-.74.55-.77.47-.81.4-.86.33-.89.26-.94.18-.97.11-1.02.03-1.06h0l-.03-1.06-.11-1.02-.18-.97-.26-.94-.33-.9-.4-.85-.47-.81-.55-.77-.62-.74-.69-.69h0l-.73-.67-.76-.6-.81-.52-.85-.45-.9-.38-.94-.31-.98-.25-1.03-.17-1.06-.11-1.11-.03h-17.65Z"/>
  <path d="M281.77,213.56h0l-.26-.02-.24-.03-.23-.06-.21-.09-.2-.11-.18-.13-.16-.16-.15-.18-.13-.21-.12-.23-16.83-37.31h0l-.06-.1-.05-.09-.07-.08-.07-.07-.08-.06-.09-.05-.09-.04-.09-.02-.1-.02h-.11s-12.53,0-12.53,0h-.13s-.11.02-.11.02l-.1.04-.09.05-.07.05-.06.08-.05.09-.03.1-.02.12v.13s0,36.77,0,36.77h0v.13l-.02.13-.03.13-.04.13-.05.13-.05.12-.07.12-.09.12-.09.11-.1.11h0l-.09.08-.09.07-.1.06-.09.05-.11.05-.11.04-.12.02-.12.02h-.13s-.13.02-.13.02h-15.89s-.13-.02-.13-.02l-.13-.02-.13-.02-.13-.04-.12-.05-.12-.05-.12-.06-.11-.07-.11-.08h0l-.08-.11-.07-.11-.05-.12-.05-.12-.05-.12-.03-.13-.03-.13-.02-.13v-.13s-.02-.13-.02-.13v-91.06h0v-.13s.02-.13.02-.13l.02-.13.03-.12.03-.11.05-.1.05-.1.05-.09.07-.09.08-.09h0l.11-.1.11-.09.12-.08.12-.07.12-.06.13-.05.13-.04.13-.02.13-.02h.13s38.53,0,38.53,0h0l1.71.04,1.66.1,1.61.17,1.57.25,1.53.31,1.49.38,1.44.45,1.4.53,1.36.59,1.31.67h0l1.29.73,1.23.79,1.16.85,1.1.91,1.04.97.99,1.03.92,1.09.85,1.14.8,1.21.73,1.27h0l.69,1.31.62,1.35.55,1.4.47,1.43.41,1.47.32,1.52.26,1.56.18,1.6.11,1.64.04,1.67h0l-.05,1.81-.14,1.75-.23,1.71-.32,1.65-.41,1.6-.5,1.55-.59,1.5-.69,1.45-.77,1.39-.87,1.35h0l-.95,1.26-1.03,1.18-1.1,1.1-1.17,1.03-1.24.95-1.31.88-1.39.81-1.46.73-1.53.65-1.61.58h0l-.13.05-.1.07-.09.07-.06.09-.05.09-.03.1v.1s0,.12,0,.12l.02.13.05.13,18.32,38.13h0l.05.1.05.1.04.09.04.09.02.09.03.08.02.07.02.07v.06s0,.05,0,.05h0l-.02.2-.05.19-.07.16-.1.14-.13.12-.16.1-.2.07-.22.05-.25.03-.28.02h-16.58ZM249.71,135.56h-.13s-.11.02-.11.02l-.1.04-.09.05-.07.06-.06.07-.05.09-.03.1-.02.12v.13s0,23.04,0,23.04h0v.13s.03.12.03.12l.03.1.05.09.06.07.07.06.09.05.1.03.11.02h.13s17.66,0,17.66,0h0l1.1-.04,1.07-.09,1.03-.17.98-.23.94-.31.89-.37.85-.44.81-.51.77-.57.72-.64h0l.69-.69.62-.74.55-.77.48-.81.4-.86.32-.89.26-.94.18-.97.11-1.02.04-1.06h0l-.04-1.06-.11-1.02-.18-.97-.26-.94-.32-.9-.4-.85-.48-.81-.55-.77-.62-.74-.69-.69h0l-.72-.67-.77-.6-.81-.52-.85-.45-.89-.38-.94-.31-.98-.25-1.03-.17-1.07-.11-1.1-.03h-17.66Z"/>
  <path d="M346.3,215.04h0l-2.08-.04-2.03-.13-1.98-.21-1.93-.31-1.88-.38-1.84-.48-1.78-.56-1.74-.64-1.69-.74-1.64-.82h0l-1.55-.89-1.49-.96-1.42-1.03-1.35-1.1-1.27-1.17-1.21-1.24-1.13-1.3-1.06-1.36-.99-1.44-.92-1.5h0l-.85-1.58-.76-1.64-.67-1.67-.58-1.72-.49-1.77-.41-1.82-.31-1.86-.23-1.9-.13-1.96-.04-2v-28.83h0l.04-1.97.13-1.93.23-1.88.31-1.83.41-1.79.49-1.74.58-1.7.67-1.65.76-1.6.85-1.56h0l.92-1.5.99-1.42,1.06-1.36,1.13-1.29,1.21-1.22,1.27-1.15,1.35-1.08,1.42-1.01,1.49-.95,1.55-.87h0l1.64-.81,1.69-.74,1.74-.65,1.78-.56,1.84-.48,1.88-.38,1.93-.31,1.98-.22,2.03-.13,2.08-.05h0l2.1.05,2.05.13,2,.22,1.94.31,1.89.38,1.83.48,1.78.56,1.72.65,1.67.74,1.61.81h0l1.58.87,1.51.95,1.43,1.01,1.36,1.08,1.29,1.15,1.21,1.22,1.15,1.29,1.06,1.36,1,1.42.92,1.5h0l.85,1.56.76,1.6.67,1.65.58,1.7.49,1.74.4,1.79.31,1.83.23,1.88.13,1.93.04,1.97v28.83h0l-.04,2-.13,1.96-.23,1.9-.31,1.86-.4,1.82-.49,1.77-.58,1.72-.67,1.67-.76,1.64-.85,1.58h0l-.92,1.53-1,1.46-1.06,1.39-1.15,1.31-1.21,1.25-1.29,1.17-1.36,1.11-1.43,1.03-1.51.97-1.58.9h0l-1.61.79-1.67.71-1.72.63-1.78.54-1.83.46-1.89.38-1.94.29-2,.21-2.05.13-2.1.04ZM346.3,198.74h0l1.46-.05,1.39-.14,1.34-.23,1.28-.33,1.23-.42,1.17-.52,1.11-.61,1.06-.7,1-.81.95-.89h0l.87-.98.78-1.03.68-1.1.59-1.16.51-1.23.41-1.28.32-1.35.23-1.41.13-1.46.05-1.53v-29.64h0l-.05-1.53-.13-1.47-.23-1.41-.32-1.34-.41-1.29-.51-1.22-.59-1.16-.68-1.1-.78-1.04-.87-.97h0l-.92-.92-.98-.82-1.05-.73-1.1-.63-1.17-.53-1.23-.44-1.29-.34-1.35-.24-1.42-.15-1.48-.05h0l-1.46.05-1.39.15-1.35.24-1.28.34-1.23.44-1.17.53-1.11.63-1.06.73-1,.82-.94.92h0l-.85.97-.76,1.04-.67,1.1-.58,1.16-.49,1.22-.4,1.29-.31,1.34-.23,1.41-.13,1.47-.04,1.53v29.64h0l.04,1.53.13,1.46.23,1.41.31,1.35.4,1.28.49,1.23.58,1.16.67,1.1.76,1.03.85.98h0l.94.89,1,.81,1.06.7,1.11.61,1.17.52,1.23.42,1.28.33,1.35.23,1.39.14,1.46.05Z"/>
  <path d="M417.3,213.56h0l-.29-.02-.27-.04-.24-.07-.22-.09-.2-.12-.18-.15-.16-.17-.13-.2-.12-.23-.09-.25-23.85-91.21-.13-.54h0v-.23s.05-.21.05-.21l.08-.18.1-.16.13-.13.16-.11.19-.09.23-.06.25-.03.28-.02h16.7l.27.02.23.04.23.07.2.09.18.12.17.15.14.17.13.2.11.23.09.25,12.8,54.83h0l.02.1.03.09.03.08.04.07.04.06.04.05.05.04.05.02.05.02h.05s.05,0,.05,0l.05-.02.05-.02.05-.04.04-.05.04-.06.04-.07.03-.08.03-.09.03-.1,12.39-54.7h0l.09-.27.11-.26.13-.22.15-.2.16-.16.19-.13.2-.1.22-.07.24-.05.26-.02h16.3l.29.02.26.04.24.07.23.09.2.12.18.15.16.17.13.2.11.23.09.25,13.48,54.83h0l.02.08.03.08.03.06.04.06.04.05.04.05.05.05.05.04.05.03.05.03h.05s.05-.02.05-.02l.05-.02.05-.04.04-.05.04-.06.04-.07.03-.08.03-.09.03-.1,12.39-54.7h0l.09-.27.11-.26.13-.22.15-.2.16-.16.19-.13.2-.1.22-.07.24-.05.26-.02h15.9l.35.02.31.05.27.09.21.13.17.16.13.2.09.23.03.26-.02.3-.05.34-22.09,91.21h0l-.09.25-.11.23-.14.2-.16.17-.17.15-.2.12-.22.09-.24.07-.27.04-.28.02h-16.04l-.26-.02-.24-.04-.22-.07-.2-.09-.19-.12-.16-.15-.15-.17-.13-.2-.11-.23-.09-.25-13.74-58.34h0l-.03-.1-.03-.09-.03-.08-.04-.07-.04-.06-.04-.05-.05-.04-.05-.02-.05-.02h-.05s-.05,0-.05,0l-.05.02-.05.02-.05.04-.04.05-.04.06-.04.07-.03.08-.03.09-.03.1-12.8,58.2h0l-.06.27-.09.26-.11.22-.14.2-.16.16-.19.13-.21.1-.23.07-.26.05-.29.02h-14.95Z"/>
</svg>
